# xmcd
# Track frame offsets:
# 150
# 19050
# 39912
# 58882
#
# Disc length: 1060 seconds
# Revision: 1
# Processed by: cddbd v1.4PL0 Copyright (c) Steve Scherf et al.
# Submitted via: VisiTrax 2.9.5.181 - For more info visit www.synapsa.com
#
DISCID=2b042204
DTITLE=Jon Secada - Angel
DYEAR=1900
DGENRE=
TTITLE0=Angel - Angel  - Radio Edit
TTITLE1=Angel - Angel - Album Version
TTITLE2=Angel - Angel - Spanglish Edit
TTITLE3=Angel - Angel - Spanish Album Version
EXTD=
EXTT0=
EXTT1=
EXTT2=
EXTT3=
PLAYORDER=
